<svg width="41" height="40" viewBox="0 0 41 40" fill="none" xmlns="http://www.w3.org/2000/svg">
<path d="M21.5064 0.271656C20.5518 -0.284139 19.3274 0.0391166 18.7716 0.993667C18.2158 1.94822 18.5391 3.17259 19.4936 3.72839L34 12.1748V18C34 19.1046 34.8954 20 36 20C37.1046 20 38 19.1046 38 18V11.025C38 10.3131 37.6216 9.65487 37.0063 9.29666L21.5064 0.271656Z" fill="#1D2D3E"/>
<path d="M14.0268 5.32394C13.355 4.90856 12.5017 4.92744 11.849 5.37213L3.84896 10.8221C3.18694 11.2731 2.88097 12.0514 3 12.7933V29.025C3 29.7396 3.3813 30.4 4.00023 30.7572L19.5502 39.7322C20.1709 40.0904 20.9357 40.0892 21.5552 39.729L23.7052 38.479C24.6601 37.9239 24.9842 36.6997 24.429 35.7448C23.8738 34.7899 22.6497 34.4658 21.6948 35.021L20.5464 35.6887L6.99999 27.8701V13.5155L13.0278 9.40908L24.0555 16.2278L24.0253 17.9652C24.0061 19.0696 24.8858 19.9805 25.9902 19.9997C27.0946 20.0189 28.0055 19.1392 28.0247 18.0348L28.0747 15.1598C28.087 14.4545 27.7268 13.7949 27.1268 13.4239L14.0268 5.32394Z" fill="#1D2D3E"/>
<path d="M13.4744 21.7677C12.5177 21.2157 11.2946 21.5438 10.7426 22.5006C10.1906 23.4573 10.5188 24.6804 11.4755 25.2324L16.6756 28.2324C17.6323 28.7844 18.8554 28.4562 19.4074 27.4995C19.9594 26.5427 19.6312 25.3196 18.6744 24.7677L13.4744 21.7677Z" fill="#1D2D3E"/>
<path d="M29.75 38C29.75 39.1 30.65 40 31.75 40C32.85 40 33.75 39.1 33.75 38V33.25H38.5C39.6 33.25 40.5 32.35 40.5 31.25C40.5 30.15 39.6 29.25 38.5 29.25H33.75V24.5C33.75 23.4 32.85 22.5 31.75 22.5C30.65 22.5 29.75 23.4 29.75 24.5V29.25H25C23.9 29.25 23 30.15 23 31.25C23 32.35 23.9 33.25 25 33.25H29.75V38Z" fill="#1D2D3E"/>
</svg>
