<svg width="41" height="40" viewBox="0 0 41 40" fill="none" xmlns="http://www.w3.org/2000/svg">
<path d="M37.1667 25C37.1667 31.45 31.95 36.6667 25.5 36.6667L27.25 33.75" stroke="#292D32" stroke-width="1.5" stroke-linecap="round" stroke-linejoin="round"/>
<path d="M3.83331 15C3.83331 8.54998 9.04998 3.33331 15.5 3.33331L13.75 6.24998" stroke="#292D32" stroke-width="1.5" stroke-linecap="round" stroke-linejoin="round"/>
<path d="M23.3333 7.41669L29.9666 11.25L36.5333 7.43337" stroke="#292D32" stroke-width="1.5" stroke-linecap="round" stroke-linejoin="round"/>
<path d="M29.9666 18.0334V11.2333" stroke="#292D32" stroke-width="1.5" stroke-linecap="round" stroke-linejoin="round"/>
<path d="M28.4 3.68331L24.4 5.89991C23.5 6.39991 22.75 7.66656 22.75 8.69989V12.9333C22.75 13.9666 23.4833 15.2333 24.4 15.7333L28.4 17.95C29.25 18.4333 30.65 18.4333 31.5167 17.95L35.5166 15.7333C36.4166 15.2333 37.1667 13.9666 37.1667 12.9333V8.69989C37.1667 7.66656 36.4333 6.39991 35.5166 5.89991L31.5167 3.68331C30.6667 3.21665 29.2667 3.21665 28.4 3.68331Z" stroke="#292D32" stroke-width="1.5" stroke-linecap="round" stroke-linejoin="round"/>
<path d="M4.41663 25.7501L11.0333 29.5834L17.6166 25.7667" stroke="#292D32" stroke-width="1.5" stroke-linecap="round" stroke-linejoin="round"/>
<path d="M11.0333 36.3667V29.5667" stroke="#292D32" stroke-width="1.5" stroke-linecap="round" stroke-linejoin="round"/>
<path d="M9.48331 22.0167L5.48332 24.2333C4.58332 24.7333 3.83331 25.9999 3.83331 27.0333V31.2667C3.83331 32.3 4.56666 33.5667 5.48332 34.0667L9.48331 36.2833C10.3333 36.7667 11.7333 36.7667 12.6 36.2833L16.6 34.0667C17.5 33.5667 18.25 32.3 18.25 31.2667V27.0333C18.25 25.9999 17.5167 24.7333 16.6 24.2333L12.6 22.0167C11.7333 21.55 10.3333 21.55 9.48331 22.0167Z" stroke="#292D32" stroke-width="1.5" stroke-linecap="round" stroke-linejoin="round"/>
</svg>
