<svg width="40" height="40" viewBox="0 0 40 40" fill="none" xmlns="http://www.w3.org/2000/svg">
<path d="M38 37.5H2C0.899998 37.5 0 36.6 0 35.5V4.5C0 3.4 0.899998 2.5 2 2.5H10.5C11.6 2.5 12.5 3.4 12.5 4.5V18H16V12C16 11.225 16.45 10.525 17.125 10.2C17.825 9.875 18.65 9.95 19.25 10.45L26 15.85V12C26 11.225 26.45 10.525 27.125 10.2C27.825 9.875 28.65 9.95 29.25 10.45L39.25 18.45C39.725 18.825 40 19.4 40 20V35.5C40 36.6 39.1 37.5 38 37.5ZM12.5 33.5H36V20.95L30 16.15V20C30 20.775 29.55 21.475 28.875 21.8C28.175 22.125 27.35 22.05 26.75 21.55L20 16.15V20C20 21.1 19.1 22 18 22H12.5V25H13C14.1 25 15 25.9 15 27C15 28.1 14.1 29 13 29H12.5V33.5ZM4 33.5H8.5V29H4V33.5ZM4 25H8.5V22H4V25ZM4 18H8.5V14H4V18ZM4 10H8.5V6.5H4V10ZM30 30C28.625 30 27.5 28.875 27.5 27.5C27.5 26.125 28.625 25 30 25C31.375 25 32.5 26.125 32.5 27.5C32.5 28.875 31.375 30 30 30ZM22.5 30C21.125 30 20 28.875 20 27.5C20 26.125 21.125 25 22.5 25C23.875 25 25 26.125 25 27.5C25 28.875 23.875 30 22.5 30Z" fill="#1D2D3E"/>
</svg>
