<svg width="57" height="48" viewBox="0 0 57 48" fill="none" xmlns="http://www.w3.org/2000/svg">
<rect x="0.5" width="56" height="48" rx="4" fill="#5A7DA0" fill-opacity="0.35"/>
<path d="M48.3 22.65C48.3 22.65 48.3 22.65 48.3 22.625L43.3 12.625C42.95 11.95 42.275 11.525 41.5 11.525H36V11.025C36 8.55002 33.975 6.52502 31.5 6.52502H13C10.475 6.52502 8.5 8.50002 8.5 11.025V27.125V29.525C8.5 32 10.525 34.025 13 34.025H13.625C13.55 34.425 13.5 34.85 13.5 35.275C13.5 38.725 16.3 41.525 19.75 41.525C23.2 41.525 26 38.725 26 35.275C26 34.85 25.95 34.425 25.875 34.025H31.125C31.05 34.425 31 34.85 31 35.275C31 38.725 33.8 41.525 37.25 41.525C40.7 41.525 43.5 38.725 43.5 35.275C43.5 34.85 43.45 34.425 43.375 34.025H44C46.475 34.025 48.5 32 48.5 29.525V23.525C48.5 23.225 48.425 22.925 48.3 22.675V22.65ZM36 15.5H40.25L43.25 21.5H36V15.5ZM19.75 37.5C18.5 37.5 17.5 36.5 17.5 35.25C17.5 34 18.5 33 19.75 33C21 33 22 34 22 35.25C22 36.5 21 37.5 19.75 37.5ZM37.25 37.5C36 37.5 35 36.5 35 35.25C35 34 36 33 37.25 33C38.5 33 39.5 34 39.5 35.25C39.5 36.5 38.5 37.5 37.25 37.5ZM44.5 29.5C44.5 29.775 44.275 30 44 30H40.625C39.65 29.375 38.5 29 37.25 29C36 29 34.85 29.375 33.875 30H23.1C22.125 29.375 20.975 29 19.725 29C18.475 29 17.325 29.375 16.35 30H12.975C12.7 30 12.475 29.775 12.475 29.5V28.225V11C12.475 10.7 12.675 10.5 12.975 10.5H31.475C31.75 10.5 31.975 10.725 31.975 11V13.45C31.975 13.45 31.975 13.45 31.975 13.5V23.5C31.975 24.6 32.875 25.5 33.975 25.5H44.475V29.5H44.5Z" fill="#1D2D3E"/>
</svg>
