<svg width="41" height="40" viewBox="0 0 41 40" fill="none" xmlns="http://www.w3.org/2000/svg">
<path d="M30.5 11.9334C30.4 11.9167 30.2833 11.9167 30.1833 11.9334C27.8833 11.85 26.05 9.96671 26.05 7.63338C26.05 5.25004 27.9667 3.33337 30.35 3.33337C32.7333 3.33337 34.65 5.26671 34.65 7.63338C34.6333 9.96671 32.8 11.85 30.5 11.9334Z" stroke="#292D32" stroke-width="1.5" stroke-linecap="round" stroke-linejoin="round"/>
<path d="M28.7833 24.0667C31.0666 24.4501 33.5833 24.0501 35.35 22.8667C37.7 21.3001 37.7 18.7334 35.35 17.1667C33.5666 15.9834 31.0166 15.5834 28.7333 15.9834" stroke="#292D32" stroke-width="1.5" stroke-linecap="round" stroke-linejoin="round"/>
<path d="M10.4501 11.9334C10.5501 11.9167 10.6667 11.9167 10.7667 11.9334C13.0667 11.85 14.9 9.96671 14.9 7.63338C14.9 5.25004 12.9834 3.33337 10.6001 3.33337C8.21672 3.33337 6.30005 5.26671 6.30005 7.63338C6.31672 9.96671 8.15005 11.85 10.4501 11.9334Z" stroke="#292D32" stroke-width="1.5" stroke-linecap="round" stroke-linejoin="round"/>
<path d="M12.1667 24.0667C9.88336 24.4501 7.36669 24.0501 5.60002 22.8667C3.25002 21.3001 3.25002 18.7334 5.60002 17.1667C7.38336 15.9834 9.93335 15.5834 12.2167 15.9834" stroke="#292D32" stroke-width="1.5" stroke-linecap="round" stroke-linejoin="round"/>
<path d="M20.5 24.3833C20.4 24.3667 20.2834 24.3667 20.1834 24.3833C17.8834 24.3 16.05 22.4167 16.05 20.0833C16.05 17.7 17.9667 15.7833 20.35 15.7833C22.7333 15.7833 24.65 17.7167 24.65 20.0833C24.6334 22.4167 22.8 24.3167 20.5 24.3833Z" stroke="#292D32" stroke-width="1.5" stroke-linecap="round" stroke-linejoin="round"/>
<path d="M15.65 29.6333C13.3 31.2 13.3 33.7667 15.65 35.3333C18.3167 37.1167 22.6833 37.1167 25.35 35.3333C27.7 33.7667 27.7 31.2 25.35 29.6333C22.7 27.8667 18.3167 27.8667 15.65 29.6333Z" stroke="#292D32" stroke-width="1.5" stroke-linecap="round" stroke-linejoin="round"/>
</svg>
