<svg width="41" height="40" viewBox="0 0 41 40" fill="none" xmlns="http://www.w3.org/2000/svg">
<path d="M30.5 22.9998C30.5 24.0998 31.4 24.9998 32.5 24.9998H38.5C39.6 24.9998 40.5 24.0998 40.5 22.9998C40.5 20.9499 38.825 19.2748 36.775 19.2748H34.225C32.175 19.2748 30.5 20.9499 30.5 22.9998Z" fill="#1D2D3E"/>
<path d="M0.5 22.9998C0.5 24.0998 1.4 24.9998 2.5 24.9998H8.5C9.6 24.9998 10.5 24.0998 10.5 22.9998C10.5 20.9499 8.82501 19.2748 6.77501 19.2748H4.225C2.175 19.2748 0.5 20.9499 0.5 22.9998Z" fill="#1D2D3E"/>
<path d="M33 14.9998C33 16.3748 34.125 17.4998 35.5 17.4998H35.525C36.25 17.4998 36.95 17.1748 37.425 16.5998C37.9 16.0498 38.1 15.2998 37.975 14.5748C37.8 13.5498 37 12.7248 35.95 12.5498C35.2 12.4248 34.475 12.6248 33.9 13.0998C33.325 13.5748 33 14.2498 33 14.9998Z" fill="#1D2D3E"/>
<path d="M3 14.9998C3 16.3748 4.125 17.4998 5.5 17.4998H5.52501C6.25001 17.4998 6.95 17.1748 7.425 16.5998C7.9 16.0498 8.09999 15.2998 7.97499 14.5748C7.79999 13.5498 7 12.7248 5.95 12.5498C5.2 12.4248 4.475 12.6248 3.9 13.0998C3.325 13.5748 3 14.2498 3 14.9998Z" fill="#1D2D3E"/>
<path d="M15.5 10.4998C15.5 11.5998 16.4 12.4998 17.5 12.4998H23.5C24.6 12.4998 25.5 11.5998 25.5 10.4998C25.5 8.44985 23.825 6.77485 21.775 6.77485H19.225C17.175 6.77485 15.5 8.44985 15.5 10.4998Z" fill="#1D2D3E"/>
<path d="M33.225 9.52485C33.575 10.1748 34.25 10.5248 34.95 10.5248L34.975 10.5498C35.325 10.5498 35.65 10.4498 35.975 10.2748C36.925 9.72485 37.25 8.49985 36.7 7.54985C35.325 5.17485 32.9 3.22485 30.525 2.57485C29.475 2.27485 28.375 2.92485 28.075 3.97485C27.775 5.02485 28.4 6.12485 29.475 6.42485C30.825 6.77485 32.4 8.09985 33.225 9.52485Z" fill="#1D2D3E"/>
<path d="M5.025 10.2498C5.35 10.4498 5.675 10.5248 6.025 10.5248L6.05 10.4998C6.725 10.4998 7.4 10.1498 7.775 9.49985C8.6 8.07485 10.175 6.77485 11.525 6.39985C12.575 6.12485 13.225 5.02485 12.925 3.94985C12.65 2.87485 11.55 2.24985 10.475 2.54985C8.07499 3.19985 5.675 5.14985 4.3 7.52485C3.75 8.47485 4.075 9.69985 5.025 10.2498Z" fill="#1D2D3E"/>
<path d="M17.975 2.49985C17.975 3.87485 19.1 4.99985 20.475 4.99985H20.5C21.225 4.99985 21.925 4.67485 22.4 4.09985C22.875 3.54985 23.075 2.79985 22.95 2.07485C22.775 1.04985 21.975 0.224849 20.925 0.0498492C20.175 -0.0751508 19.45 0.124849 18.875 0.599849C18.3 1.07485 17.975 1.74985 17.975 2.49985Z" fill="#1D2D3E"/>
<path fill-rule="evenodd" clip-rule="evenodd" d="M10.5 38C10.5 39.1 11.4 40 12.5 40H28.525C29.625 40 30.525 39.1 30.525 38V37C30.525 33.2 28.275 29.925 25.05 28.4C25.45 28.075 25.85 27.725 26.2 27.3C27.6 25.625 28.2 23.4 27.825 21.2C27.3 18.2 24.85 15.75 21.825 15.2C19.625 14.825 17.4 15.4 15.725 16.825C14.025 18.225 13.075 20.3 13.075 22.5C13.075 24.9 14.2 27.05 15.975 28.4C12.75 29.9 10.5 33.2 10.5 37V38ZM26.425 36H14.625C15.1 33.45 17.325 31.5 20.025 31.5H21.025C23.7 31.5 25.95 33.45 26.425 36ZM18.275 19.875C18.925 19.35 19.675 19.075 20.5 19.075C20.7 19.075 20.925 19.1 21.125 19.125C22.475 19.375 23.625 20.525 23.85 21.85C24.025 22.9 23.775 23.9 23.1 24.7C22.45 25.475 21.5 25.925 20.475 25.925C18.575 25.925 17.05 24.4 17.05 22.5C17.05 21.475 17.5 20.525 18.275 19.875Z" fill="#1D2D3E"/>
</svg>
