<svg width="41" height="40" viewBox="0 0 41 40" fill="none" xmlns="http://www.w3.org/2000/svg">
<path d="M40.3 18.65C40.3 18.65 40.3 18.65 40.3 18.625L35.3 8.62502C34.95 7.95002 34.275 7.52502 33.5 7.52502H28V7.02502C28 4.55002 25.975 2.52502 23.5 2.52502H5C2.475 2.52502 0.5 4.50002 0.5 7.02502V23.125V25.525C0.5 28 2.525 30.025 5 30.025H5.625C5.55 30.425 5.5 30.85 5.5 31.275C5.5 34.725 8.3 37.525 11.75 37.525C15.2 37.525 18 34.725 18 31.275C18 30.85 17.95 30.425 17.875 30.025H23.125C23.05 30.425 23 30.85 23 31.275C23 34.725 25.8 37.525 29.25 37.525C32.7 37.525 35.5 34.725 35.5 31.275C35.5 30.85 35.45 30.425 35.375 30.025H36C38.475 30.025 40.5 28 40.5 25.525V19.525C40.5 19.225 40.425 18.925 40.3 18.675V18.65ZM28 11.5H32.25L35.25 17.5H28V11.5ZM11.75 33.5C10.5 33.5 9.5 32.5 9.5 31.25C9.5 30 10.5 29 11.75 29C13 29 14 30 14 31.25C14 32.5 13 33.5 11.75 33.5ZM29.25 33.5C28 33.5 27 32.5 27 31.25C27 30 28 29 29.25 29C30.5 29 31.5 30 31.5 31.25C31.5 32.5 30.5 33.5 29.25 33.5ZM36.5 25.5C36.5 25.775 36.275 26 36 26H32.625C31.65 25.375 30.5 25 29.25 25C28 25 26.85 25.375 25.875 26H15.1C14.125 25.375 12.975 25 11.725 25C10.475 25 9.325 25.375 8.35 26H4.975C4.7 26 4.475 25.775 4.475 25.5V24.225V7.00002C4.475 6.70002 4.675 6.50002 4.975 6.50002H23.475C23.75 6.50002 23.975 6.72502 23.975 7.00002V9.45002C23.975 9.45002 23.975 9.45002 23.975 9.50002V19.5C23.975 20.6 24.875 21.5 25.975 21.5H36.475V25.5H36.5Z" fill="#1D2D3E"/>
</svg>
